<svg width="300" height="36" viewBox="0 0 300 36" fill="none" xmlns="http://www.w3.org/2000/svg">
<path d="M14.9062 21.5156C14.9062 22.8516 14.5898 23.9824 13.957 24.9082C13.3359 25.8223 12.4043 26.5195 11.1621 27C9.91992 27.4688 8.37305 27.7031 6.52148 27.7031C5.15039 27.7031 3.97266 27.6152 2.98828 27.4395C2.01562 27.2637 1.03125 26.9707 0.0351562 26.5605V22.1309C1.10156 22.6113 2.24414 23.0098 3.46289 23.3262C4.69336 23.6309 5.77148 23.7832 6.69727 23.7832C7.74023 23.7832 8.48438 23.6309 8.92969 23.3262C9.38672 23.0098 9.61523 22.5996 9.61523 22.0957C9.61523 21.7676 9.52148 21.4746 9.33398 21.2168C9.1582 20.9473 8.77148 20.6484 8.17383 20.3203C7.57617 19.9805 6.63867 19.541 5.36133 19.002C4.13086 18.4863 3.11719 17.9648 2.32031 17.4375C1.53516 16.9102 0.949219 16.2891 0.5625 15.5742C0.1875 14.8477 0 13.9277 0 12.8145C0 10.998 0.703125 9.63281 2.10938 8.71875C3.52734 7.79297 5.41992 7.33008 7.78711 7.33008C9.00586 7.33008 10.166 7.45312 11.2676 7.69922C12.3809 7.94531 13.5234 8.33789 14.6953 8.87695L13.0781 12.7441C12.1055 12.3223 11.1855 11.9766 10.3184 11.707C9.46289 11.4375 8.58984 11.3027 7.69922 11.3027C6.91406 11.3027 6.32227 11.4082 5.92383 11.6191C5.52539 11.8301 5.32617 12.1523 5.32617 12.5859C5.32617 12.9023 5.42578 13.1836 5.625 13.4297C5.83594 13.6758 6.23438 13.9512 6.82031 14.2559C7.41797 14.5488 8.29102 14.9297 9.43945 15.3984C10.5527 15.8555 11.5195 16.3359 12.3398 16.8398C13.1602 17.332 13.793 17.9473 14.2383 18.6855C14.6836 19.4121 14.9062 20.3555 14.9062 21.5156ZM27.3691 23.4316C27.9551 23.4316 28.5234 23.373 29.0742 23.2559C29.6367 23.1387 30.1934 22.9922 30.7441 22.8164V26.8066C30.1699 27.0645 29.4551 27.2754 28.5996 27.4395C27.7559 27.6152 26.8301 27.7031 25.8223 27.7031C24.6504 27.7031 23.5957 27.5156 22.6582 27.1406C21.7324 26.7539 21 26.0918 20.4609 25.1543C19.9336 24.2051 19.6699 22.8867 19.6699 21.1992V11.7246H17.1035V9.45703L20.0566 7.66406L21.6035 3.51562H25.0312V7.69922H30.5332V11.7246H25.0312V21.1992C25.0312 21.9492 25.2422 22.5117 25.6641 22.8867C26.0977 23.25 26.666 23.4316 27.3691 23.4316ZM45.7031 7.33008C45.9727 7.33008 46.2832 7.34766 46.6348 7.38281C46.998 7.40625 47.291 7.44141 47.5137 7.48828L47.1094 12.5156C46.9336 12.457 46.6816 12.416 46.3535 12.3926C46.0371 12.3574 45.7617 12.3398 45.5273 12.3398C44.8359 12.3398 44.1621 12.4277 43.5059 12.6035C42.8613 12.7793 42.2812 13.0664 41.7656 13.4648C41.25 13.8516 40.8398 14.3672 40.5352 15.0117C40.2422 15.6445 40.0957 16.4238 40.0957 17.3496V27.3516H34.7344V7.69922H38.7949L39.5859 11.0039H39.8496C40.2363 10.3359 40.7168 9.72656 41.291 9.17578C41.877 8.61328 42.5391 8.16797 43.2773 7.83984C44.0273 7.5 44.8359 7.33008 45.7031 7.33008ZM68.9414 17.4902C68.9414 19.1309 68.7188 20.584 68.2734 21.8496C67.8398 23.1152 67.2012 24.1875 66.3574 25.0664C65.5254 25.9336 64.5176 26.5898 63.334 27.0352C62.1621 27.4805 60.8379 27.7031 59.3613 27.7031C57.9785 27.7031 56.707 27.4805 55.5469 27.0352C54.3984 26.5898 53.3965 25.9336 52.541 25.0664C51.6973 24.1875 51.041 23.1152 50.5723 21.8496C50.1152 20.584 49.8867 19.1309 49.8867 17.4902C49.8867 15.3105 50.2734 13.4648 51.0469 11.9531C51.8203 10.4414 52.9219 9.29297 54.3516 8.50781C55.7812 7.72266 57.4863 7.33008 59.4668 7.33008C61.3066 7.33008 62.9355 7.72266 64.3535 8.50781C65.7832 9.29297 66.9023 10.4414 67.7109 11.9531C68.5312 13.4648 68.9414 15.3105 68.9414 17.4902ZM55.3535 17.4902C55.3535 18.7793 55.4941 19.8633 55.7754 20.7422C56.0566 21.6211 56.4961 22.2832 57.0938 22.7285C57.6914 23.1738 58.4707 23.3965 59.4316 23.3965C60.3809 23.3965 61.1484 23.1738 61.7344 22.7285C62.332 22.2832 62.7656 21.6211 63.0352 20.7422C63.3164 19.8633 63.457 18.7793 63.457 17.4902C63.457 16.1895 63.3164 15.1113 63.0352 14.2559C62.7656 13.3887 62.332 12.7383 61.7344 12.3047C61.1367 11.8711 60.3574 11.6543 59.3965 11.6543C57.9785 11.6543 56.9473 12.1406 56.3027 13.1133C55.6699 14.0859 55.3535 15.5449 55.3535 17.4902ZM70.5586 7.69922H76.4297L80.1387 18.7559C80.2559 19.1074 80.3555 19.4648 80.4375 19.8281C80.5195 20.1914 80.5898 20.5664 80.6484 20.9531C80.707 21.3398 80.7539 21.7441 80.7891 22.166H80.8945C80.9648 21.5332 81.0586 20.9414 81.1758 20.3906C81.3047 19.8398 81.4629 19.2949 81.6504 18.7559L85.2891 7.69922H91.0371L82.7227 29.8652C82.2188 31.2246 81.5625 32.3555 80.7539 33.2578C79.9453 34.1719 79.0137 34.8574 77.959 35.3145C76.916 35.7715 75.7676 36 74.5137 36C73.9043 36 73.377 35.9648 72.9316 35.8945C72.4863 35.8359 72.1055 35.7715 71.7891 35.7012V31.4473C72.0352 31.5059 72.3457 31.5586 72.7207 31.6055C73.0957 31.6523 73.4883 31.6758 73.8984 31.6758C74.6484 31.6758 75.293 31.5176 75.832 31.2012C76.3711 30.8848 76.8223 30.457 77.1855 29.918C77.5488 29.3906 77.8359 28.8105 78.0469 28.1777L78.3633 27.2109L70.5586 7.69922ZM92.127 19.8984V15.5039H101.566V19.8984H92.127ZM128.549 7.33008C130.775 7.33008 132.457 7.9043 133.594 9.05273C134.742 10.1895 135.316 12.0176 135.316 14.5371V27.3516H129.938V15.873C129.938 14.4668 129.697 13.4062 129.217 12.6914C128.736 11.9766 127.992 11.6191 126.984 11.6191C125.566 11.6191 124.559 12.1289 123.961 13.1484C123.363 14.1562 123.064 15.6035 123.064 17.4902V27.3516H117.703V15.873C117.703 14.9355 117.598 14.1504 117.387 13.5176C117.176 12.8848 116.854 12.4102 116.42 12.0938C115.986 11.7773 115.43 11.6191 114.75 11.6191C113.754 11.6191 112.969 11.8711 112.395 12.375C111.832 12.8672 111.428 13.5996 111.182 14.5723C110.947 15.5332 110.83 16.7109 110.83 18.1055V27.3516H105.469V7.69922H109.564L110.285 10.2129H110.584C110.982 9.5332 111.48 8.98242 112.078 8.56055C112.688 8.13867 113.355 7.82812 114.082 7.62891C114.809 7.42969 115.547 7.33008 116.297 7.33008C117.738 7.33008 118.957 7.56445 119.953 8.0332C120.961 8.50195 121.734 9.22852 122.273 10.2129H122.748C123.334 9.20508 124.16 8.47266 125.227 8.01562C126.305 7.55859 127.412 7.33008 128.549 7.33008ZM148.887 7.29492C151.523 7.29492 153.545 7.86914 154.951 9.01758C156.357 10.166 157.061 11.9121 157.061 14.2559V27.3516H153.316L152.279 24.6797H152.139C151.576 25.3828 151.002 25.957 150.416 26.4023C149.83 26.8477 149.156 27.1758 148.395 27.3867C147.633 27.5977 146.707 27.7031 145.617 27.7031C144.457 27.7031 143.414 27.4805 142.488 27.0352C141.574 26.5898 140.854 25.9102 140.326 24.9961C139.799 24.0703 139.535 22.8984 139.535 21.4805C139.535 19.3945 140.268 17.8594 141.732 16.875C143.197 15.8789 145.395 15.3281 148.324 15.2227L151.734 15.1172V14.2559C151.734 13.2246 151.465 12.4688 150.926 11.9883C150.387 11.5078 149.637 11.2676 148.676 11.2676C147.727 11.2676 146.795 11.4023 145.881 11.6719C144.967 11.9414 144.053 12.2812 143.139 12.6914L141.363 9.07031C142.406 8.51953 143.572 8.08594 144.861 7.76953C146.162 7.45312 147.504 7.29492 148.887 7.29492ZM151.734 18.2461L149.66 18.3164C147.926 18.3633 146.719 18.6738 146.039 19.248C145.371 19.8223 145.037 20.5781 145.037 21.5156C145.037 22.3359 145.277 22.9219 145.758 23.2734C146.238 23.6133 146.865 23.7832 147.639 23.7832C148.787 23.7832 149.754 23.4434 150.539 22.7637C151.336 22.084 151.734 21.1172 151.734 19.8633V18.2461ZM168.346 36C165.604 36 163.506 35.5195 162.053 34.5586C160.611 33.6094 159.891 32.2734 159.891 30.5508C159.891 29.3672 160.26 28.377 160.998 27.5801C161.736 26.7832 162.82 26.2148 164.25 25.875C163.699 25.6406 163.219 25.2598 162.809 24.7324C162.398 24.1934 162.193 23.625 162.193 23.0273C162.193 22.2773 162.41 21.6562 162.844 21.1641C163.277 20.6602 163.904 20.168 164.725 19.6875C163.693 19.2422 162.873 18.5273 162.264 17.543C161.666 16.5586 161.367 15.3984 161.367 14.0625C161.367 12.6328 161.678 11.4199 162.299 10.4238C162.932 9.41602 163.846 8.64844 165.041 8.12109C166.248 7.59375 167.713 7.33008 169.436 7.33008C169.799 7.33008 170.221 7.35352 170.701 7.40039C171.182 7.44727 171.621 7.5 172.02 7.55859C172.43 7.61719 172.705 7.66406 172.846 7.69922H179.701V10.4238L176.625 11.2148C176.906 11.6484 177.117 12.1113 177.258 12.6035C177.398 13.0957 177.469 13.6172 177.469 14.168C177.469 16.2773 176.73 17.9238 175.254 19.1074C173.789 20.2793 171.75 20.8652 169.137 20.8652C168.516 20.8301 167.93 20.7832 167.379 20.7246C167.109 20.9355 166.904 21.1582 166.764 21.3926C166.623 21.627 166.553 21.873 166.553 22.1309C166.553 22.3887 166.658 22.6055 166.869 22.7812C167.092 22.9453 167.42 23.0742 167.854 23.168C168.299 23.25 168.85 23.291 169.506 23.291H172.846C175.002 23.291 176.643 23.7539 177.768 24.6797C178.904 25.6055 179.473 26.9648 179.473 28.7578C179.473 31.0547 178.512 32.8359 176.59 34.1016C174.68 35.3672 171.932 36 168.346 36ZM168.574 32.502C169.852 32.502 170.947 32.3789 171.861 32.1328C172.787 31.8984 173.496 31.5586 173.988 31.1133C174.48 30.6797 174.727 30.1582 174.727 29.5488C174.727 29.0566 174.58 28.6641 174.287 28.3711C174.006 28.0898 173.572 27.8906 172.986 27.7734C172.412 27.6562 171.674 27.5977 170.771 27.5977H167.994C167.338 27.5977 166.746 27.7031 166.219 27.9141C165.703 28.125 165.293 28.418 164.988 28.793C164.684 29.1797 164.531 29.625 164.531 30.1289C164.531 30.8672 164.883 31.4473 165.586 31.8691C166.301 32.291 167.297 32.502 168.574 32.502ZM169.436 17.5957C170.443 17.5957 171.182 17.2852 171.65 16.6641C172.119 16.043 172.354 15.1992 172.354 14.1328C172.354 12.9492 172.107 12.0645 171.615 11.4785C171.135 10.8809 170.408 10.582 169.436 10.582C168.451 10.582 167.713 10.8809 167.221 11.4785C166.729 12.0645 166.482 12.9492 166.482 14.1328C166.482 15.1992 166.723 16.043 167.203 16.6641C167.695 17.2852 168.439 17.5957 169.436 17.5957ZM191.004 7.29492C193.641 7.29492 195.662 7.86914 197.068 9.01758C198.475 10.166 199.178 11.9121 199.178 14.2559V27.3516H195.434L194.396 24.6797H194.256C193.693 25.3828 193.119 25.957 192.533 26.4023C191.947 26.8477 191.273 27.1758 190.512 27.3867C189.75 27.5977 188.824 27.7031 187.734 27.7031C186.574 27.7031 185.531 27.4805 184.605 27.0352C183.691 26.5898 182.971 25.9102 182.443 24.9961C181.916 24.0703 181.652 22.8984 181.652 21.4805C181.652 19.3945 182.385 17.8594 183.85 16.875C185.314 15.8789 187.512 15.3281 190.441 15.2227L193.852 15.1172V14.2559C193.852 13.2246 193.582 12.4688 193.043 11.9883C192.504 11.5078 191.754 11.2676 190.793 11.2676C189.844 11.2676 188.912 11.4023 187.998 11.6719C187.084 11.9414 186.17 12.2812 185.256 12.6914L183.48 9.07031C184.523 8.51953 185.689 8.08594 186.979 7.76953C188.279 7.45312 189.621 7.29492 191.004 7.29492ZM193.852 18.2461L191.777 18.3164C190.043 18.3633 188.836 18.6738 188.156 19.248C187.488 19.8223 187.154 20.5781 187.154 21.5156C187.154 22.3359 187.395 22.9219 187.875 23.2734C188.355 23.6133 188.982 23.7832 189.756 23.7832C190.904 23.7832 191.871 23.4434 192.656 22.7637C193.453 22.084 193.852 21.1172 193.852 19.8633V18.2461ZM218.391 27.3516H202.869V24.1875L211.975 11.7949H203.414V7.69922H218.074V11.1797L209.215 23.2559H218.391V27.3516ZM227.654 7.69922V27.3516H222.293V7.69922H227.654ZM224.982 0C225.779 0 226.465 0.1875 227.039 0.5625C227.613 0.925781 227.9 1.61133 227.9 2.61914C227.9 3.61523 227.613 4.30664 227.039 4.69336C226.465 5.06836 225.779 5.25586 224.982 5.25586C224.174 5.25586 223.482 5.06836 222.908 4.69336C222.346 4.30664 222.064 3.61523 222.064 2.61914C222.064 1.61133 222.346 0.925781 222.908 0.5625C223.482 0.1875 224.174 0 224.982 0ZM244.459 7.33008C246.557 7.33008 248.244 7.9043 249.521 9.05273C250.799 10.1895 251.438 12.0176 251.438 14.5371V27.3516H246.076V15.873C246.076 14.4668 245.818 13.4062 245.303 12.6914C244.799 11.9766 244.002 11.6191 242.912 11.6191C241.271 11.6191 240.152 12.1758 239.555 13.2891C238.957 14.4023 238.658 16.0078 238.658 18.1055V27.3516H233.297V7.69922H237.393L238.113 10.2129H238.412C238.834 9.5332 239.355 8.98242 239.977 8.56055C240.609 8.13867 241.307 7.82812 242.068 7.62891C242.842 7.42969 243.639 7.33008 244.459 7.33008ZM256.201 24.8379C256.201 23.7363 256.5 22.9629 257.098 22.5176C257.707 22.0723 258.439 21.8496 259.295 21.8496C260.127 21.8496 260.842 22.0723 261.439 22.5176C262.049 22.9629 262.354 23.7363 262.354 24.8379C262.354 25.8926 262.049 26.6543 261.439 27.123C260.842 27.5918 260.127 27.8262 259.295 27.8262C258.439 27.8262 257.707 27.5918 257.098 27.123C256.5 26.6543 256.201 25.8926 256.201 24.8379ZM277.225 7.52344C277.553 7.52344 277.91 7.54102 278.297 7.57617C278.684 7.61133 279.018 7.6582 279.299 7.7168L278.912 11.584C278.666 11.5137 278.361 11.4609 277.998 11.4258C277.646 11.3906 277.33 11.373 277.049 11.373C276.311 11.373 275.607 11.4961 274.939 11.7422C274.271 11.9766 273.68 12.3398 273.164 12.832C272.648 13.3125 272.244 13.916 271.951 14.6426C271.658 15.3691 271.512 16.2129 271.512 17.1738V27.3516H267.363V7.89258H270.598L271.16 11.3203H271.354C271.74 10.6289 272.221 9.99609 272.795 9.42188C273.369 8.84766 274.025 8.39062 274.764 8.05078C275.514 7.69922 276.334 7.52344 277.225 7.52344ZM299.865 7.89258V27.3516H296.613L296.051 24.7324H295.822C295.412 25.4004 294.891 25.957 294.258 26.4023C293.625 26.8359 292.922 27.1582 292.148 27.3691C291.375 27.5918 290.561 27.7031 289.705 27.7031C288.24 27.7031 286.986 27.457 285.943 26.9648C284.912 26.4609 284.121 25.6875 283.57 24.6445C283.02 23.6016 282.744 22.2539 282.744 20.6016V7.89258H286.893V19.8281C286.893 21.3398 287.197 22.4707 287.807 23.2207C288.428 23.9707 289.389 24.3457 290.689 24.3457C291.943 24.3457 292.939 24.0879 293.678 23.5723C294.416 23.0566 294.938 22.2949 295.242 21.2871C295.559 20.2793 295.717 19.043 295.717 17.5781V7.89258H299.865Z" fill="#002F6C"/>
</svg>
