<svg width="26" height="32" viewBox="0 0 26 32" fill="none" xmlns="http://www.w3.org/2000/svg">
<path d="M5.6 24H4V26H5.6C6.2 26 6.6 25.6 6.6 25C6.6 24.4 6.2 24 5.6 24ZM16 0H0V32H26V10L16 0ZM8.4 25.2C8.4 26.8 7.2 28 5.6 28H4V30H2V22H5.6C7.2 22 8.4 23.2 8.4 24.8V25.2ZM16.6 26.2C16.6 28.2 15 30 12.8 30H10V22H12.8C14.8 22 16.6 23.6 16.6 25.8V26.2ZM24 24H20V26H23V28H20V30H18V22H24V24ZM24 20H2V2H16V10H24V20ZM12.8 24H12V28H12.8C14 28 14.8 27.2 14.8 26C14.8 24.8 13.8 24 12.8 24Z" fill="#0180BA"/>
</svg>
