<svg width="20" height="20" viewBox="0 0 20 20" fill="none" xmlns="http://www.w3.org/2000/svg">
<path d="M10.3 0C10.35 4.05417 10.6292 6.33333 12.15 7.85C13.6709 9.37083 15.95 9.64583 20.0042 9.7C19.8459 4.4125 15.5875 0.154167 10.3 0Z" fill="white"/>
<path d="M7.85417 7.85C9.375 6.33333 9.65 4.05417 9.7 0C4.4125 0.154167 0.154167 4.4125 0 9.7C4.05417 9.65 6.33333 9.37083 7.85417 7.85Z" fill="white"/>
<path d="M1.62763e-05 10.2998C0.154183 15.5873 4.41252 19.8456 9.70002 19.9998C9.65002 15.9456 9.37085 13.6665 7.85002 12.1498C6.32918 10.629 4.05002 10.354 -0.00415039 10.2998H1.62763e-05Z" fill="white"/>
<path d="M20.0001 10.2998C15.9459 10.3498 13.6667 10.629 12.1459 12.1498C10.6251 13.6706 10.3501 15.9498 10.2959 19.9998C15.5834 19.8456 19.8417 15.5873 19.9959 10.2998H20.0001Z" fill="white"/>
</svg>
