<?xml version="1.0" encoding="utf-8"?><svg viewBox="0 0 30 30" xmlns="http://www.w3.org/2000/svg" xmlns:xlink="http://www.w3.org/1999/xlink"><style>:root>svg{display:none}:root>svg:target{display:block}</style><svg fill="none" viewBox="0 0 9 6" id="arrow" xmlns="http://www.w3.org/2000/svg"><path d="m8 1.5-3.5 3-3.5-3"/></svg><svg fill="none" viewBox="0 0 7 13" id="arrow-right" xmlns="http://www.w3.org/2000/svg"><path d="m.5 12.5 6-6-6-6"/></svg><svg fill="none" viewBox="0 0 20 20" id="cart" xmlns="http://www.w3.org/2000/svg"><path d="M4.3 3H19l-2 7H5.377M18 14H6L4 1H1m6 17a1 1 0 1 1-2 0 1 1 0 0 1 2 0Zm11 0a1 1 0 1 1-2 0 1 1 0 0 1 2 0Z" stroke="#006694" stroke-width="2" stroke-linecap="round" stroke-linejoin="round"/></svg><svg viewBox="0 0 30 30" id="close" xmlns="http://www.w3.org/2000/svg"><path d="M0 28.284 28.284 0l.707.707L.707 28.99z"/><path d="m1 .284 28.284 28.284-.707.707L.293.991z"/></svg><svg fill="none" viewBox="0 0 20 20" id="dzen" xmlns="http://www.w3.org/2000/svg"><path d="M10.3 0c.05 4.054.33 6.333 1.85 7.85 1.52 1.52 3.8 1.796 7.854 1.85C19.846 4.413 15.587.154 10.3 0ZM7.854 7.85C9.375 6.333 9.65 4.054 9.7 0 4.413.154.154 4.412 0 9.7c4.054-.05 6.333-.33 7.854-1.85ZM0 10.3c.154 5.287 4.413 9.546 9.7 9.7-.05-4.054-.33-6.334-1.85-7.85-1.52-1.521-3.8-1.796-7.854-1.85H0ZM20 10.3c-4.054.05-6.333.329-7.854 1.85-1.52 1.52-1.796 3.8-1.85 7.85 5.287-.154 9.546-4.413 9.7-9.7H20Z" fill="#fff"/></svg><svg fill="none" viewBox="0 0 14 11" id="email" xmlns="http://www.w3.org/2000/svg"><path d="m.75 2.75 5.26 3.507a1.333 1.333 0 0 0 1.48 0l5.26-3.507M2.083 10.083h9.334c.736 0 1.333-.597 1.333-1.333V2.083c0-.736-.597-1.333-1.333-1.333H2.083C1.347.75.75 1.347.75 2.083V8.75c0 .736.597 1.333 1.333 1.333Z" stroke="#0180BA" stroke-width="1.5" stroke-linecap="round" stroke-linejoin="round"/></svg><svg viewBox="0 0 20 9" id="gmb" xmlns="http://www.w3.org/2000/svg"><path d="M0 0h20v1H0zM0 4h20v1H0zM5 8h15v1H5z"/></svg><svg fill="none" viewBox="0 0 20 18" id="heart" xmlns="http://www.w3.org/2000/svg"><path d="M4.95 1c1.123 0 1.719.131 2.416.483.41.207.769.479 1.082.82l.819.89.742.808.736-.814.81-.898a3.672 3.672 0 0 1 1.094-.836C13.314 1.121 13.86 1 15.052 1 17.184 1.01 19 2.884 19 5.806c0 2.292-1.337 4.822-4.327 7.567-1.455 1.336-3.284 2.666-4.673 3.479-1.39-.813-3.218-2.143-4.673-3.479C2.337 10.628 1 8.098 1 5.806 1 2.835 2.787 1 4.95 1Z" stroke="#006694" stroke-width="2"/></svg><svg fill="none" viewBox="0 0 16 19" id="loc" xmlns="http://www.w3.org/2000/svg"><path d="M7.667 10.167a2.5 2.5 0 1 0 0-5 2.5 2.5 0 0 0 0 5Z" stroke="#0180BA" stroke-width="2" stroke-linecap="round" stroke-linejoin="round"/><path d="M7.667 17.667c3.333-3.334 6.666-6.318 6.666-10A6.667 6.667 0 1 0 1 7.667c0 3.682 3.333 6.666 6.667 10Z" stroke="#0180BA" stroke-width="2" stroke-linecap="round" stroke-linejoin="round"/></svg><svg fill="none" viewBox="0 0 16 20" id="person" xmlns="http://www.w3.org/2000/svg"><path fill-rule="evenodd" clip-rule="evenodd" d="M5 14a3 3 0 0 0-3 3 1 1 0 0 0 1 1h10a1 1 0 0 0 1-1 3 3 0 0 0-3-3H5Zm-5 3a5 5 0 0 1 5-5h6a5 5 0 0 1 5 5 3 3 0 0 1-3 3H3a3 3 0 0 1-3-3ZM8 2a3 3 0 1 0 0 6 3 3 0 0 0 0-6ZM3 5a5 5 0 1 1 10 0A5 5 0 0 1 3 5Z" fill="#006694"/></svg><svg fill="none" viewBox="0 0 15 15" id="phone" xmlns="http://www.w3.org/2000/svg"><path d="M14.009 10.697v2a1.332 1.332 0 0 1-1.454 1.333 13.193 13.193 0 0 1-5.753-2.047 13 13 0 0 1-4-4 13.193 13.193 0 0 1-2.047-5.78A1.333 1.333 0 0 1 2.082.75h2a1.333 1.333 0 0 1 1.333 1.147 8.56 8.56 0 0 0 .467 1.873 1.333 1.333 0 0 1-.3 1.407l-.847.846a10.667 10.667 0 0 0 4 4l.847-.846a1.333 1.333 0 0 1 1.407-.3 8.56 8.56 0 0 0 1.873.466 1.333 1.333 0 0 1 1.147 1.354Z" stroke="#0180BA" stroke-width="1.5" stroke-linecap="round" stroke-linejoin="round"/></svg><svg fill="none" viewBox="0 0 20 20" id="search" xmlns="http://www.w3.org/2000/svg"><path d="M13.796 13.811 19 19M16 8.5a7.5 7.5 0 1 1-15 0 7.5 7.5 0 0 1 15 0Z" stroke="#CCE2ED" stroke-width="2" stroke-linecap="round" stroke-linejoin="round"/></svg><svg viewBox="0 0 16 13" id="telegram" xmlns="http://www.w3.org/2000/svg"><path d="M15.19 0c-.555.01-1.406.299-5.498 1.967A709.04 709.04 0 0 0 1.1 5.596c-.698.273-1.062.538-1.095.798-.064.5.67.655 1.591.95.752.239 1.765.52 2.291.53.478.01 1.01-.183 1.598-.577 4.015-2.658 6.085-4 6.216-4.028.091-.02.218-.047.305.029.086.075.077.216.067.255-.073.305-3.842 3.666-4.059 3.887l-.104.104c-.8.784-1.608 1.297-.214 2.197 1.26.813 1.993 1.332 3.287 2.167.83.531 1.48 1.162 2.335 1.086.394-.037.8-.399 1.008-1.482.488-2.557 1.448-8.1 1.669-10.385.013-.19.005-.38-.025-.568a.606.606 0 0 0-.21-.39c-.175-.142-.449-.17-.57-.169Z"/></svg><svg fill="none" viewBox="0 0 19 12" id="vk" xmlns="http://www.w3.org/2000/svg"><path fill-rule="evenodd" clip-rule="evenodd" d="M18.309.781c.139-.44 0-.76-.616-.76h-2.045c-.516 0-.755.28-.894.58 0 0-1.052 2.562-2.522 4.224-.476.48-.694.64-.953.64-.139 0-.318-.16-.318-.6V.76c0-.52-.158-.761-.595-.761H7.148a.495.495 0 0 0-.516.48c0 .5.735.621.814 2.022v3.045c0 .66-.117.781-.377.781-.695 0-2.383-2.582-3.396-5.525C3.477.22 3.277 0 2.76 0H.695C.099 0 0 .28 0 .58c0 .541.695 3.263 3.237 6.866 1.688 2.461 4.09 3.784 6.255 3.784 1.31 0 1.47-.3 1.47-.8V8.567c0-.6.119-.7.536-.7.297 0 .834.159 2.045 1.34 1.39 1.401 1.628 2.042 2.403 2.042h2.045c.596 0 .874-.3.715-.88-.179-.581-.854-1.422-1.728-2.423-.476-.56-1.191-1.18-1.41-1.481-.297-.4-.218-.56 0-.92-.02 0 2.483-3.564 2.74-4.766" fill="#fff"/></svg><svg viewBox="0 0 16 16" id="whatsapp" xmlns="http://www.w3.org/2000/svg"><path d="M7.61.01C3.347.21-.014 3.73 0 7.96c.002 1.245.3 2.472.87 3.58l-.848 4.088a.31.31 0 0 0 .377.363l4.04-.949c1.069.528 2.243.811 3.437.828 4.354.066 7.984-3.363 8.12-7.68.146-4.63-3.705-8.402-8.387-8.18Zm4.82 12.319A6.247 6.247 0 0 1 8 14.149a6.24 6.24 0 0 1-2.788-.648l-.562-.278-2.477.582.522-2.51-.278-.54a6.104 6.104 0 0 1-.68-2.818c0-1.66.651-3.22 1.834-4.393A6.302 6.302 0 0 1 8 1.724c1.674 0 3.246.645 4.43 1.819a6.15 6.15 0 0 1 1.834 4.393c0 1.645-.662 3.23-1.835 4.393Z"/><path d="m12.103 9.695-1.553-.44a.586.586 0 0 0-.573.15l-.38.38a.57.57 0 0 1-.615.129C8.248 9.62 6.703 8.267 6.308 7.59a.55.55 0 0 1 .045-.618l.332-.423a.564.564 0 0 0 .071-.58l-.653-1.455a.577.577 0 0 0-.4-.326.585.585 0 0 0-.504.122c-.433.361-.948.91-1.01 1.518-.11 1.072.356 2.423 2.12 4.046 2.038 1.875 3.671 2.123 4.733 1.869.603-.144 1.086-.721 1.389-1.193a.566.566 0 0 0-.328-.855Z"/></svg><svg fill="none" viewBox="0 0 20 15" id="youtube" xmlns="http://www.w3.org/2000/svg"><path d="M10.064 0h.111c1.027.004 6.234.041 7.637.419a2.513 2.513 0 0 1 1.77 1.775c.125.475.214 1.103.274 1.752l.013.13.027.325.01.13c.082 1.143.091 2.213.093 2.447v.093a40.142 40.142 0 0 1-.103 2.575l-.01.131-.011.13c-.063.716-.155 1.425-.294 1.948a2.51 2.51 0 0 1-1.768 1.775c-1.45.39-6.962.417-7.725.419H9.91c-.386 0-1.984-.008-3.659-.065l-.212-.008-.109-.005-.214-.008-.213-.01c-1.388-.06-2.71-.16-3.318-.324a2.51 2.51 0 0 1-1.769-1.774c-.138-.521-.231-1.232-.293-1.947l-.01-.132-.01-.13A39.25 39.25 0 0 1 0 7.101v-.154C.003 6.68.013 5.75.08 4.726l.009-.129.004-.065.01-.13.027-.325.012-.13c.06-.649.15-1.279.276-1.752A2.509 2.509 0 0 1 2.186.419C2.795.256 4.116.156 5.504.094l.212-.009.215-.007.108-.004.214-.009c1.19-.038 2.38-.06 3.57-.064h.24V0ZM8 4.013v6.022l5.196-3.01L8 4.012Z" fill="#fff"/></svg></svg>