<svg width="16" height="13" viewBox="0 0 16 13" xmlns="http://www.w3.org/2000/svg">
<path d="M15.1894 5.05249e-05C14.6351 0.0101612 13.7841 0.299036 9.69211 1.96729C6.81981 3.1579 3.95547 4.36735 1.09927 5.59556C0.401025 5.86855 0.0373525 6.13431 0.00389466 6.3943C-0.0601115 6.89406 0.673051 7.0486 1.59532 7.34326C2.3474 7.58302 3.35986 7.86323 3.88645 7.87479C4.36359 7.8849 4.89601 7.69135 5.4837 7.29704C9.49863 4.63939 11.5687 3.29756 11.6996 3.26867C11.7912 3.24845 11.9178 3.22245 12.0051 3.29756C12.0909 3.37267 12.0822 3.51422 12.072 3.55321C11.9992 3.85798 8.23015 7.21904 8.0134 7.44003L7.90866 7.54402C7.10858 8.32832 6.30123 8.84108 7.69482 9.74092C8.95458 10.5541 9.68774 11.0726 10.9824 11.9075C11.8116 12.439 12.4618 13.0702 13.3172 12.9937C13.7114 12.9575 14.1173 12.595 14.3253 11.5117C14.8126 8.95518 15.7727 3.41167 15.9938 1.12666C16.0072 0.937131 15.9989 0.746703 15.9691 0.559024C15.9511 0.407501 15.8763 0.268256 15.7596 0.169042C15.5836 0.0274932 15.3101 -0.00139385 15.1894 5.05249e-05Z"/>
</svg>
