<svg width="16" height="16" viewBox="0 0 16 16" xmlns="http://www.w3.org/2000/svg">
<path d="M7.60924 0.0100623C3.34847 0.21047 -0.0128018 3.72963 3.66548e-05 7.95983C0.00214746 9.205 0.300556 10.4318 0.870646 11.5391L0.0217016 15.6282C0.0113433 15.6793 0.0140555 15.7323 0.0295874 15.7821C0.0451192 15.8319 0.0729694 15.8769 0.110562 15.9131C0.148155 15.9493 0.194278 15.9755 0.244664 15.9892C0.29505 16.0028 0.348074 16.0036 0.398832 15.9914L4.43814 15.0422C5.50797 15.5704 6.68242 15.853 7.87564 15.8695C12.2303 15.936 15.8604 12.5067 15.996 8.1899C16.142 3.56048 12.2913 -0.211989 7.60924 0.00926062V0.0100623ZM12.4293 12.3287C11.8471 12.9082 11.1562 13.3673 10.3962 13.6795C9.6361 13.9918 8.82183 14.1511 8.00001 14.1484C7.03313 14.1514 6.0788 13.9296 5.21246 13.5007L4.64997 13.2225L2.17295 13.8045L2.69451 11.2946L2.41688 10.7559C1.96681 9.88433 1.73342 8.9173 1.73644 7.93658C1.73644 6.27721 2.38799 4.71643 3.57074 3.54365C4.74963 2.37784 6.34124 1.72366 8.00001 1.72315C9.67383 1.72315 11.2465 2.36926 12.4293 3.54285C13.012 4.11652 13.4744 4.80048 13.7895 5.55475C14.1046 6.30902 14.266 7.11846 14.2644 7.93578C14.2644 9.58072 13.6024 11.1663 12.4293 12.3295V12.3287Z" />
<path d="M12.1027 9.69485L10.5502 9.25592C10.45 9.22738 10.344 9.2261 10.2431 9.25221C10.1422 9.27833 10.0503 9.33088 9.97696 9.40436L9.59748 9.78582C9.51896 9.86477 9.41873 9.91898 9.30934 9.9417C9.19995 9.96441 9.08624 9.9546 8.98242 9.91351C8.24838 9.62063 6.70311 8.26715 6.30835 7.58961C6.25301 7.49391 6.22774 7.38399 6.23576 7.27394C6.24378 7.16388 6.28474 7.05872 6.35338 6.97192L6.68462 6.54896C6.74839 6.46792 6.78874 6.37119 6.80134 6.26912C6.81395 6.16706 6.79834 6.06351 6.75618 5.96958L6.10333 4.51395C6.06641 4.43259 6.01098 4.36084 5.9414 4.30434C5.87182 4.24784 5.78998 4.20813 5.70232 4.18833C5.61466 4.16853 5.52357 4.16918 5.43621 4.19024C5.34885 4.21129 5.2676 4.25216 5.19885 4.30965C4.7655 4.67117 4.25094 5.21942 4.18903 5.82833C4.07889 6.9001 4.5452 8.25119 6.30916 9.87441C8.34727 11.749 9.98018 11.9972 11.0422 11.7426C11.6452 11.599 12.1276 11.022 12.4307 10.5503C12.4792 10.4754 12.5093 10.3903 12.5186 10.3017C12.5279 10.2132 12.5161 10.1237 12.4842 10.0405C12.4523 9.95724 12.4011 9.88262 12.3349 9.82259C12.2686 9.76257 12.1891 9.71881 12.1027 9.69485V9.69485Z" />
</svg>
