<svg width="20" height="15" viewBox="0 0 20 15" fill="none" xmlns="http://www.w3.org/2000/svg">
<path d="M10.0638 0H10.175C11.2025 0.00375 16.4088 0.0412502 17.8125 0.41875C18.2369 0.533961 18.6236 0.758528 18.934 1.07001C19.2443 1.38149 19.4675 1.76898 19.5813 2.19375C19.7075 2.66875 19.7963 3.2975 19.8563 3.94625L19.8688 4.07625L19.8963 4.40125L19.9063 4.53125C19.9875 5.67375 19.9975 6.74375 19.9988 6.9775V7.07125C19.9975 7.31375 19.9863 8.45625 19.8963 9.64625L19.8863 9.7775L19.875 9.9075C19.8125 10.6225 19.72 11.3325 19.5813 11.855C19.4679 12.2799 19.2448 12.6676 18.9344 12.9791C18.6239 13.2907 18.237 13.5151 17.8125 13.63C16.3625 14.02 10.8513 14.0475 10.0875 14.0487H9.91C9.52375 14.0487 7.92625 14.0413 6.25125 13.9838L6.03875 13.9763L5.93 13.9713L5.71625 13.9625L5.5025 13.9538C4.115 13.8925 2.79375 13.7938 2.185 13.6288C1.76061 13.514 1.37383 13.2897 1.06341 12.9784C0.75298 12.6671 0.529809 12.2797 0.41625 11.855C0.2775 11.3338 0.185 10.6225 0.1225 9.9075L0.1125 9.77625L0.1025 9.64625C0.0408095 8.79925 0.00662483 7.95047 0 7.10125L0 6.9475C0.0025 6.67875 0.0125 5.75 0.08 4.725L0.08875 4.59625L0.0925 4.53125L0.1025 4.40125L0.13 4.07625L0.1425 3.94625C0.2025 3.2975 0.29125 2.6675 0.4175 2.19375C0.530867 1.76881 0.753953 1.38114 1.06439 1.0696C1.37483 0.758067 1.76171 0.533615 2.18625 0.41875C2.795 0.25625 4.11625 0.15625 5.50375 0.0937499L5.71625 0.0849999L5.93125 0.0775002L6.03875 0.0737502L6.2525 0.0650002C7.44214 0.0267184 8.63226 0.00546608 9.8225 0.00125006H10.0638V0ZM8 4.0125V10.035L13.1963 7.025L8 4.0125Z" fill="white"/>
</svg>
