<svg width="20" height="18" viewBox="0 0 20 18" fill="none" xmlns="http://www.w3.org/2000/svg">
<path d="M4.94922 1C6.07333 1 6.66856 1.13125 7.36621 1.4834C7.77558 1.69004 8.13486 1.96155 8.44824 2.30273L9.2666 3.19238L10.0088 4.00098L10.7451 3.18652L11.5547 2.28906C11.8766 1.93254 12.2408 1.65725 12.6494 1.45312C13.3143 1.12103 13.8588 1.00018 15.0518 1C17.1838 1.00986 19 2.88448 19 5.80566C19 8.09828 17.663 10.6284 14.6729 13.373C13.2176 14.7088 11.3895 16.0392 10 16.8516C8.61049 16.0392 6.78243 14.7088 5.32715 13.373C2.33701 10.6284 1 8.09828 1 5.80566C1.00001 2.8346 2.78673 1.00016 4.94922 1Z" stroke="#006694" stroke-width="2"/>
</svg>
