<svg width="16" height="20" viewBox="0 0 16 20" fill="none" xmlns="http://www.w3.org/2000/svg">
<path fill-rule="evenodd" clip-rule="evenodd" d="M5 14C3.34315 14 2 15.3431 2 17C2 17.5523 2.44772 18 3 18H13C13.5523 18 14 17.5523 14 17C14 15.3431 12.6569 14 11 14H5ZM0 17C0 14.2386 2.23858 12 5 12H11C13.7614 12 16 14.2386 16 17C16 18.6569 14.6569 20 13 20H3C1.34315 20 0 18.6569 0 17Z" fill="#006694"/>
<path fill-rule="evenodd" clip-rule="evenodd" d="M8 2C6.34315 2 5 3.34315 5 5C5 6.65685 6.34315 8 8 8C9.65685 8 11 6.65685 11 5C11 3.34315 9.65685 2 8 2ZM3 5C3 2.23858 5.23858 0 8 0C10.7614 0 13 2.23858 13 5C13 7.76142 10.7614 10 8 10C5.23858 10 3 7.76142 3 5Z" fill="#006694"/>
</svg>
