<?xml version="1.0" encoding="utf-8"?><svg viewBox="0 0 30 30" xmlns="http://www.w3.org/2000/svg" xmlns:xlink="http://www.w3.org/1999/xlink"><style>:root>svg{display:none}:root>svg:target{display:block}</style><svg fill="none" viewBox="0 0 9 6" id="arrow" xmlns="http://www.w3.org/2000/svg"><path d="m8 1.5-3.5 3-3.5-3"/></svg><svg fill="none" viewBox="0 0 7 13" id="arrow-right" xmlns="http://www.w3.org/2000/svg"><path d="m.5 12.5 6-6-6-6" stroke="#A4A4A4" stroke-linecap="round" stroke-linejoin="round"/></svg><svg fill="none" viewBox="0 0 20 20" id="cart" xmlns="http://www.w3.org/2000/svg"><path d="M4.3 3H19l-2 7H5.377M18 14H6L4 1H1m6 17a1 1 0 1 1-2 0 1 1 0 0 1 2 0Zm11 0a1 1 0 1 1-2 0 1 1 0 0 1 2 0Z" stroke="#006694" stroke-width="2" stroke-linecap="round" stroke-linejoin="round"/></svg><svg viewBox="0 0 30 30" id="close" xmlns="http://www.w3.org/2000/svg"><path d="M0 28.284 28.284 0l.707.707L.707 28.99z"/><path d="m1 .284 28.284 28.284-.707.707L.293.991z"/></svg><svg fill="none" viewBox="0 0 14 11" id="email" xmlns="http://www.w3.org/2000/svg"><path d="m.75 2.75 5.26 3.507a1.333 1.333 0 0 0 1.48 0l5.26-3.507M2.083 10.083h9.334c.736 0 1.333-.597 1.333-1.333V2.083c0-.736-.597-1.333-1.333-1.333H2.083C1.347.75.75 1.347.75 2.083V8.75c0 .736.597 1.333 1.333 1.333Z" stroke="#0180BA" stroke-width="1.5" stroke-linecap="round" stroke-linejoin="round"/></svg><svg viewBox="0 0 20 9" id="gmb" xmlns="http://www.w3.org/2000/svg"><path d="M0 0h20v1H0zM0 4h20v1H0zM5 8h15v1H5z"/></svg><svg fill="none" viewBox="0 0 20 18" id="heart" xmlns="http://www.w3.org/2000/svg"><path d="M4.95 1c1.123 0 1.719.131 2.416.483.41.207.769.479 1.082.82l.819.89.742.808.736-.814.81-.898a3.672 3.672 0 0 1 1.094-.836C13.314 1.121 13.86 1 15.052 1 17.184 1.01 19 2.884 19 5.806c0 2.292-1.337 4.822-4.327 7.567-1.455 1.336-3.284 2.666-4.673 3.479-1.39-.813-3.218-2.143-4.673-3.479C2.337 10.628 1 8.098 1 5.806 1 2.835 2.787 1 4.95 1Z" stroke="#006694" stroke-width="2"/></svg><svg fill="none" viewBox="0 0 16 20" id="person" xmlns="http://www.w3.org/2000/svg"><path fill-rule="evenodd" clip-rule="evenodd" d="M5 14a3 3 0 0 0-3 3 1 1 0 0 0 1 1h10a1 1 0 0 0 1-1 3 3 0 0 0-3-3H5Zm-5 3a5 5 0 0 1 5-5h6a5 5 0 0 1 5 5 3 3 0 0 1-3 3H3a3 3 0 0 1-3-3ZM8 2a3 3 0 1 0 0 6 3 3 0 0 0 0-6ZM3 5a5 5 0 1 1 10 0A5 5 0 0 1 3 5Z" fill="#006694"/></svg><svg fill="none" viewBox="0 0 15 15" id="phone" xmlns="http://www.w3.org/2000/svg"><path d="M14.009 10.697v2a1.332 1.332 0 0 1-1.454 1.333 13.193 13.193 0 0 1-5.753-2.047 13 13 0 0 1-4-4 13.193 13.193 0 0 1-2.047-5.78A1.333 1.333 0 0 1 2.082.75h2a1.333 1.333 0 0 1 1.333 1.147 8.56 8.56 0 0 0 .467 1.873 1.333 1.333 0 0 1-.3 1.407l-.847.846a10.667 10.667 0 0 0 4 4l.847-.846a1.333 1.333 0 0 1 1.407-.3 8.56 8.56 0 0 0 1.873.466 1.333 1.333 0 0 1 1.147 1.354Z" stroke="#0180BA" stroke-width="1.5" stroke-linecap="round" stroke-linejoin="round"/></svg><svg fill="none" viewBox="0 0 20 20" id="search" xmlns="http://www.w3.org/2000/svg"><path d="M13.796 13.811 19 19M16 8.5a7.5 7.5 0 1 1-15 0 7.5 7.5 0 0 1 15 0Z" stroke="#CCE2ED" stroke-width="2" stroke-linecap="round" stroke-linejoin="round"/></svg><svg viewBox="0 0 16 13" id="telegram" xmlns="http://www.w3.org/2000/svg"><path d="M15.19 0c-.555.01-1.406.299-5.498 1.967A709.04 709.04 0 0 0 1.1 5.596c-.698.273-1.062.538-1.095.798-.064.5.67.655 1.591.95.752.239 1.765.52 2.291.53.478.01 1.01-.183 1.598-.577 4.015-2.658 6.085-4 6.216-4.028.091-.02.218-.047.305.029.086.075.077.216.067.255-.073.305-3.842 3.666-4.059 3.887l-.104.104c-.8.784-1.608 1.297-.214 2.197 1.26.813 1.993 1.332 3.287 2.167.83.531 1.48 1.162 2.335 1.086.394-.037.8-.399 1.008-1.482.488-2.557 1.448-8.1 1.669-10.385.013-.19.005-.38-.025-.568a.606.606 0 0 0-.21-.39c-.175-.142-.449-.17-.57-.169Z"/></svg><svg viewBox="0 0 16 16" id="whatsapp" xmlns="http://www.w3.org/2000/svg"><path d="M7.61.01C3.347.21-.014 3.73 0 7.96c.002 1.245.3 2.472.87 3.58l-.848 4.088a.31.31 0 0 0 .377.363l4.04-.949c1.069.528 2.243.811 3.437.828 4.354.066 7.984-3.363 8.12-7.68.146-4.63-3.705-8.402-8.387-8.18Zm4.82 12.319A6.247 6.247 0 0 1 8 14.149a6.24 6.24 0 0 1-2.788-.648l-.562-.278-2.477.582.522-2.51-.278-.54a6.104 6.104 0 0 1-.68-2.818c0-1.66.651-3.22 1.834-4.393A6.302 6.302 0 0 1 8 1.724c1.674 0 3.246.645 4.43 1.819a6.15 6.15 0 0 1 1.834 4.393c0 1.645-.662 3.23-1.835 4.393Z"/><path d="m12.103 9.695-1.553-.44a.586.586 0 0 0-.573.15l-.38.38a.57.57 0 0 1-.615.129C8.248 9.62 6.703 8.267 6.308 7.59a.55.55 0 0 1 .045-.618l.332-.423a.564.564 0 0 0 .071-.58l-.653-1.455a.577.577 0 0 0-.4-.326.585.585 0 0 0-.504.122c-.433.361-.948.91-1.01 1.518-.11 1.072.356 2.423 2.12 4.046 2.038 1.875 3.671 2.123 4.733 1.869.603-.144 1.086-.721 1.389-1.193a.566.566 0 0 0-.328-.855Z"/></svg></svg>