<svg width="19" height="12" viewBox="0 0 19 12" fill="none" xmlns="http://www.w3.org/2000/svg">
<path fill-rule="evenodd" clip-rule="evenodd" d="M18.3086 0.78125C18.4477 0.340625 18.3086 0.0203124 17.6934 0.0203124H15.6477C15.1316 0.0203124 14.8934 0.300781 14.7543 0.600781C14.7543 0.600781 13.702 3.16328 12.2324 4.82461C11.7559 5.30508 11.5375 5.46523 11.2793 5.46523C11.1402 5.46523 10.9613 5.30508 10.9613 4.86484V0.760547C10.9613 0.240234 10.8027 0 10.3656 0H7.14844C6.83047 0 6.63203 0.240234 6.63203 0.480469C6.63203 0.98086 7.3668 1.10117 7.44609 2.50234V5.54688C7.44609 6.20742 7.32891 6.32812 7.06875 6.32812C6.37383 6.32812 4.68594 3.7457 3.67344 0.803125C3.47656 0.220312 3.27656 0 2.76016 0H0.694922C0.0992188 0 0 0.280078 0 0.580469C0 1.12109 0.694922 3.84336 3.23672 7.44648C4.92461 9.90742 7.32734 11.2301 9.4918 11.2301C10.8027 11.2301 10.9613 10.9297 10.9613 10.4293V8.56758C10.9613 7.96719 11.0805 7.86719 11.4977 7.86719C11.7953 7.86719 12.3316 8.02695 13.543 9.2082C14.9328 10.6094 15.1711 11.25 15.9457 11.25H17.991C18.5867 11.25 18.8648 10.9496 18.7059 10.3691C18.5273 9.78867 17.852 8.94805 16.9781 7.94727C16.5016 7.38711 15.7867 6.76641 15.5684 6.46602C15.2707 6.06563 15.35 5.90547 15.5684 5.54531C15.5484 5.54531 18.0508 1.98203 18.3086 0.779688" fill="white"/>
</svg>
