<svg width="300" height="36" fill="none" xmlns="http://www.w3.org/2000/svg"><path d="M14.906 21.516c0 1.336-.316 2.466-.949 3.392-.621.914-1.553 1.611-2.795 2.092-1.242.469-2.789.703-4.64.703-1.372 0-2.55-.088-3.534-.264a14.552 14.552 0 0 1-2.953-.878v-4.43c1.067.48 2.21.879 3.428 1.195 1.23.305 2.308.457 3.234.457 1.043 0 1.787-.152 2.233-.457.457-.316.685-.726.685-1.23 0-.328-.094-.621-.281-.88-.176-.269-.563-.568-1.16-.896-.598-.34-1.535-.779-2.813-1.318-1.23-.516-2.244-1.037-3.04-1.564-.786-.528-1.372-1.149-1.759-1.864C.188 14.848 0 13.928 0 12.814c0-1.816.703-3.181 2.11-4.095C3.526 7.793 5.42 7.33 7.786 7.33c1.219 0 2.379.123 3.48.37 1.114.245 2.256.638 3.428 1.177l-1.617 3.867a27.477 27.477 0 0 0-2.76-1.037 8.668 8.668 0 0 0-2.619-.404c-.785 0-1.377.105-1.775.316-.399.211-.598.533-.598.967 0 .316.1.598.299.844.21.246.61.521 1.195.826.598.293 1.471.674 2.62 1.142 1.113.457 2.08.938 2.9 1.442.82.492 1.453 1.107 1.898 1.846.446.726.668 1.67.668 2.83Zm12.463 1.916c.586 0 1.154-.059 1.705-.176.563-.117 1.12-.264 1.67-.44v3.99c-.574.258-1.289.47-2.144.633-.844.176-1.77.264-2.778.264-1.172 0-2.226-.187-3.164-.562-.926-.387-1.658-1.05-2.197-1.987-.527-.949-.791-2.267-.791-3.955v-9.474h-2.567V9.457l2.954-1.793 1.547-4.148h3.427v4.183h5.502v4.026h-5.502v9.474c0 .75.211 1.313.633 1.688.434.363 1.002.545 1.705.545ZM45.703 7.33c.27 0 .58.018.932.053.363.023.656.058.879.105l-.405 5.028a3.248 3.248 0 0 0-.756-.123 7.603 7.603 0 0 0-.826-.053c-.691 0-1.365.088-2.021.264a4.944 4.944 0 0 0-1.74.86c-.516.388-.926.903-1.23 1.548-.294.633-.44 1.412-.44 2.338v10.002h-5.362V7.699h4.06l.792 3.305h.264a8.26 8.26 0 0 1 1.441-1.828 6.888 6.888 0 0 1 1.986-1.336c.75-.34 1.559-.51 2.426-.51Zm23.238 10.16c0 1.64-.222 3.094-.668 4.36-.433 1.265-1.072 2.337-1.916 3.216-.832.868-1.84 1.524-3.023 1.97-1.172.444-2.496.667-3.973.667-1.383 0-2.654-.223-3.814-.668a8.48 8.48 0 0 1-3.006-1.969c-.844-.878-1.5-1.95-1.969-3.216-.457-1.266-.685-2.72-.685-4.36 0-2.18.386-4.025 1.16-5.537.773-1.512 1.875-2.66 3.305-3.445 1.43-.785 3.134-1.178 5.115-1.178 1.84 0 3.468.393 4.886 1.178 1.43.785 2.55 1.933 3.358 3.445.82 1.512 1.23 3.357 1.23 5.537Zm-13.588 0c0 1.29.141 2.373.422 3.252.282.88.721 1.541 1.319 1.986.597.446 1.377.668 2.338.668.949 0 1.716-.222 2.302-.668.598-.445 1.032-1.107 1.301-1.986.281-.879.422-1.963.422-3.252 0-1.3-.14-2.379-.422-3.234-.27-.867-.703-1.518-1.3-1.951-.598-.434-1.378-.65-2.338-.65-1.419 0-2.45.486-3.094 1.458-.633.973-.95 2.432-.95 4.377ZM70.56 7.7h5.87l3.71 11.056c.117.351.217.709.299 1.072.081.363.152.738.21 1.125.059.387.106.791.141 1.213h.105c.07-.633.165-1.225.282-1.775.129-.551.287-1.096.474-1.635l3.64-11.057h5.747l-8.314 22.166c-.504 1.36-1.16 2.49-1.97 3.393-.808.914-1.74 1.6-2.794 2.056-1.043.458-2.191.686-3.445.686-.61 0-1.137-.035-1.582-.105a13.464 13.464 0 0 1-1.143-.194v-4.254c.246.059.557.112.932.159.375.046.767.07 1.177.07.75 0 1.395-.158 1.934-.475.54-.316.99-.744 1.354-1.283.363-.527.65-1.107.86-1.74l.317-.967L70.56 7.699Zm21.568 12.198v-4.394h9.439v4.394h-9.439ZM128.549 7.33c2.226 0 3.908.574 5.045 1.723 1.148 1.136 1.722 2.965 1.722 5.484v12.815h-5.378V15.873c0-1.406-.241-2.467-.721-3.182-.481-.714-1.225-1.072-2.233-1.072-1.418 0-2.425.51-3.023 1.53-.598 1.007-.897 2.455-.897 4.341v9.862h-5.361V15.873c0-.938-.105-1.723-.316-2.355-.211-.633-.533-1.108-.967-1.424-.434-.317-.99-.475-1.67-.475-.996 0-1.781.252-2.355.756-.563.492-.967 1.225-1.213 2.197-.235.961-.352 2.139-.352 3.534v9.246h-5.361V7.699h4.095l.721 2.514h.299c.398-.68.896-1.23 1.494-1.652a6.527 6.527 0 0 1 2.004-.932 8.342 8.342 0 0 1 2.215-.299c1.441 0 2.66.234 3.656.703a4.977 4.977 0 0 1 2.32 2.18h.475a5.14 5.14 0 0 1 2.479-2.197 8.432 8.432 0 0 1 3.322-.686Zm20.338-.035c2.636 0 4.658.574 6.064 1.723 1.406 1.148 2.11 2.894 2.11 5.238v13.096h-3.745l-1.037-2.672h-.14c-.563.703-1.137 1.277-1.723 1.722a5.912 5.912 0 0 1-2.021.985c-.762.21-1.688.316-2.778.316-1.16 0-2.203-.223-3.129-.668-.914-.445-1.634-1.125-2.162-2.039-.527-.926-.791-2.098-.791-3.515 0-2.087.733-3.622 2.197-4.606 1.465-.996 3.663-1.547 6.592-1.652l3.41-.106v-.861c0-1.031-.269-1.787-.808-2.268-.539-.48-1.289-.72-2.25-.72a9.83 9.83 0 0 0-2.795.404c-.914.27-1.828.61-2.742 1.02l-1.776-3.622c1.043-.55 2.209-.984 3.498-1.3a16.976 16.976 0 0 1 4.026-.475Zm2.847 10.951-2.074.07c-1.734.047-2.941.358-3.621.932-.668.574-1.002 1.33-1.002 2.268 0 .82.24 1.406.721 1.757.48.34 1.107.51 1.881.51 1.148 0 2.115-.34 2.9-1.02.797-.679 1.195-1.646 1.195-2.9v-1.617ZM168.346 36c-2.742 0-4.84-.48-6.293-1.441-1.442-.95-2.162-2.286-2.162-4.008 0-1.184.369-2.174 1.107-2.97.738-.798 1.822-1.366 3.252-1.706-.551-.234-1.031-.615-1.441-1.143-.411-.539-.616-1.107-.616-1.705 0-.75.217-1.37.651-1.863.433-.504 1.06-.996 1.881-1.477-1.032-.445-1.852-1.16-2.461-2.144-.598-.984-.897-2.145-.897-3.48 0-1.43.311-2.643.932-3.64.633-1.007 1.547-1.775 2.742-2.302 1.207-.527 2.672-.79 4.395-.79.363 0 .785.023 1.265.07.481.046.92.099 1.319.158.41.058.685.105.826.14h6.855v2.725l-3.076.79c.281.434.492.897.633 1.39.14.492.211 1.013.211 1.564 0 2.11-.739 3.756-2.215 4.94-1.465 1.171-3.504 1.757-6.117 1.757a35.72 35.72 0 0 1-1.758-.14c-.27.21-.475.433-.615.668a1.41 1.41 0 0 0-.211.738c0 .258.105.474.316.65.223.164.551.293.985.387.445.082.996.123 1.652.123h3.34c2.156 0 3.797.463 4.922 1.389 1.136.925 1.705 2.285 1.705 4.078 0 2.297-.961 4.078-2.883 5.344-1.91 1.265-4.658 1.898-8.244 1.898Zm.228-3.498c1.278 0 2.373-.123 3.287-.37.926-.234 1.635-.573 2.127-1.019.492-.433.739-.955.739-1.564 0-.492-.147-.885-.44-1.178-.281-.281-.715-.48-1.301-.598-.574-.117-1.312-.175-2.215-.175h-2.777c-.656 0-1.248.105-1.775.316-.516.211-.926.504-1.231.879a2.102 2.102 0 0 0-.457 1.336c0 .738.352 1.318 1.055 1.74.715.422 1.711.633 2.988.633Zm.862-14.906c1.007 0 1.746-.31 2.214-.932.469-.621.704-1.465.704-2.531 0-1.184-.247-2.068-.739-2.654-.48-.598-1.207-.897-2.179-.897-.985 0-1.723.299-2.215.896-.492.587-.739 1.471-.739 2.655 0 1.066.241 1.91.721 2.531.492.621 1.236.932 2.233.932Zm21.568-10.301c2.637 0 4.658.574 6.064 1.723 1.407 1.148 2.11 2.894 2.11 5.238v13.096h-3.744l-1.038-2.672h-.14c-.563.703-1.137 1.277-1.723 1.722a5.912 5.912 0 0 1-2.021.985c-.762.21-1.688.316-2.778.316-1.16 0-2.203-.223-3.129-.668-.914-.445-1.634-1.125-2.162-2.039-.527-.926-.791-2.098-.791-3.515 0-2.087.733-3.622 2.198-4.606 1.464-.996 3.662-1.547 6.591-1.652l3.411-.106v-.861c0-1.031-.27-1.787-.809-2.268-.539-.48-1.289-.72-2.25-.72a9.83 9.83 0 0 0-2.795.404c-.914.27-1.828.61-2.742 1.02L183.48 9.07c1.043-.55 2.209-.984 3.499-1.3 1.3-.317 2.642-.475 4.025-.475Zm2.848 10.951-2.075.07c-1.734.047-2.941.358-3.621.932-.668.574-1.002 1.33-1.002 2.268 0 .82.241 1.406.721 1.757.48.34 1.107.51 1.881.51 1.148 0 2.115-.34 2.9-1.02.797-.679 1.196-1.646 1.196-2.9v-1.617Zm24.539 9.106h-15.522v-3.165l9.106-12.392h-8.561V7.699h14.66v3.48l-8.859 12.077h9.176v4.096Zm9.263-19.653v19.653h-5.361V7.699h5.361ZM224.982 0c.797 0 1.483.188 2.057.563.574.363.861 1.048.861 2.056 0 .996-.287 1.688-.861 2.074-.574.375-1.26.563-2.057.563-.808 0-1.5-.188-2.074-.563-.562-.386-.844-1.078-.844-2.074 0-1.008.282-1.693.844-2.057.574-.375 1.266-.562 2.074-.562Zm19.477 7.33c2.098 0 3.785.574 5.062 1.723 1.278 1.136 1.917 2.965 1.917 5.484v12.815h-5.362V15.873c0-1.406-.258-2.467-.773-3.182-.504-.714-1.301-1.072-2.391-1.072-1.641 0-2.76.557-3.357 1.67-.598 1.113-.897 2.719-.897 4.816v9.247h-5.361V7.699h4.096l.72 2.514h.299c.422-.68.943-1.23 1.565-1.652a6.873 6.873 0 0 1 2.091-.932 9.554 9.554 0 0 1 2.391-.299Zm11.742 17.508c0-1.102.299-1.875.897-2.32.609-.446 1.341-.668 2.197-.668.832 0 1.547.222 2.144.668.61.445.915 1.218.915 2.32 0 1.055-.305 1.816-.915 2.285-.597.469-1.312.703-2.144.703-.856 0-1.588-.234-2.197-.703-.598-.469-.897-1.23-.897-2.285Zm21.024-17.315c.328 0 .685.018 1.072.053a8.95 8.95 0 0 1 1.002.14l-.387 3.868a5.219 5.219 0 0 0-.914-.158 9.625 9.625 0 0 0-.949-.053c-.738 0-1.442.123-2.11.37a4.889 4.889 0 0 0-1.775 1.089c-.516.48-.92 1.084-1.213 1.81-.293.727-.439 1.57-.439 2.532v10.178h-4.149V7.892h3.235l.562 3.428h.194a8.624 8.624 0 0 1 1.441-1.898 6.749 6.749 0 0 1 1.969-1.371 5.724 5.724 0 0 1 2.461-.528Zm22.64.37v19.459h-3.252l-.562-2.62h-.229a5.598 5.598 0 0 1-1.564 1.67 6.923 6.923 0 0 1-2.11.967 8.78 8.78 0 0 1-2.443.334c-1.465 0-2.719-.246-3.762-.738-1.031-.504-1.822-1.277-2.373-2.32-.55-1.043-.826-2.391-.826-4.043V7.892h4.149v11.936c0 1.512.304 2.643.914 3.393.621.75 1.582 1.125 2.882 1.125 1.254 0 2.25-.258 2.989-.774.738-.515 1.26-1.277 1.564-2.285.317-1.008.475-2.244.475-3.709V7.893h4.148Z" fill="#002F6C"/></svg>